<svg version="1.1" xmlns="http://www.w3.org/2000/svg" xmlns:xlink="http://www.w3.org/1999/xlink" width="512px" height="512px" viewBox="0,0,256,256"><g fill="#1926ec" fill-rule="nonzero" stroke="none" stroke-width="1" stroke-linecap="butt" stroke-linejoin="miter" stroke-miterlimit="10" stroke-dasharray="" stroke-dashoffset="0" font-family="none" font-weight="none" font-size="none" text-anchor="none" style="mix-blend-mode: normal"><g transform="translate(0,0.475) scale(0.5,0.5)"><path d="M512,256c0,-141.4 -114.6,-256 -256,-256c-141.4,0 -256,114.6 -256,256c0,120 82.7,220.8 194.2,248.5v-170.3h-52.8v-78.2h52.8v-33.7c0,-87.1 39.4,-127.5 125,-127.5c16.2,0 44.2,3.2 55.7,6.4v70.8c-6,-0.6 -16.5,-1 -29.6,-1c-42,0 -58.2,15.9 -58.2,57.2v27.8h83.6l-14.4,78.2h-69.3v175.9c126.8,-15.3 225,-123.2 225,-254.1z"></path></g></g></svg>